<svg xmlns="http://www.w3.org/2000/svg" width="1200" height="1500" viewBox="0 0 1200 1500" role="img" aria-label="Sample photo">
  <defs>
    <linearGradient id="g" x1="0" y1="0" x2="1" y2="1">
      <stop offset="0" stop-color="#475569"/>
      <stop offset="1" stop-color="#1e293b"/>
    </linearGradient>
    <linearGradient id="sheen" x1="0" y1="0" x2="0" y2="1">
      <stop offset="0" stop-color="#ffffff" stop-opacity="0.18"/>
      <stop offset="0.5" stop-color="#ffffff" stop-opacity="0"/>
    </linearGradient>
  </defs>
  <rect width="1200" height="1500" fill="#0f172a"/>
  <rect x="0.0" y="0.0" width="198.0" height="185.5" rx="2" fill="url(#g)" opacity="0.51"/><rect x="200.0" y="0.0" width="198.0" height="185.5" rx="2" fill="url(#g)" opacity="0.55"/><rect x="400.0" y="0.0" width="198.0" height="185.5" rx="2" fill="url(#g)" opacity="0.55"/><rect x="600.0" y="0.0" width="198.0" height="185.5" rx="2" fill="url(#g)" opacity="0.58"/><rect x="800.0" y="0.0" width="198.0" height="185.5" rx="2" fill="url(#g)" opacity="0.55"/><rect x="1000.0" y="0.0" width="198.0" height="185.5" rx="2" fill="url(#g)" opacity="0.51"/><rect x="0.0" y="187.5" width="198.0" height="185.5" rx="2" fill="url(#g)" opacity="0.58"/><rect x="200.0" y="187.5" width="198.0" height="185.5" rx="2" fill="url(#g)" opacity="0.55"/><rect x="400.0" y="187.5" width="198.0" height="185.5" rx="2" fill="url(#g)" opacity="0.55"/><rect x="600.0" y="187.5" width="198.0" height="185.5" rx="2" fill="url(#g)" opacity="0.58"/><rect x="800.0" y="187.5" width="198.0" height="185.5" rx="2" fill="url(#g)" opacity="0.51"/><rect x="1000.0" y="187.5" width="198.0" height="185.5" rx="2" fill="url(#g)" opacity="0.55"/><rect x="0.0" y="375.0" width="198.0" height="185.5" rx="2" fill="url(#g)" opacity="0.58"/><rect x="200.0" y="375.0" width="198.0" height="185.5" rx="2" fill="url(#g)" opacity="0.55"/><rect x="400.0" y="375.0" width="198.0" height="185.5" rx="2" fill="url(#g)" opacity="0.55"/><rect x="600.0" y="375.0" width="198.0" height="185.5" rx="2" fill="url(#g)" opacity="0.51"/><rect x="800.0" y="375.0" width="198.0" height="185.5" rx="2" fill="url(#g)" opacity="0.55"/><rect x="1000.0" y="375.0" width="198.0" height="185.5" rx="2" fill="url(#g)" opacity="0.55"/><rect x="0.0" y="562.5" width="198.0" height="185.5" rx="2" fill="url(#g)" opacity="0.58"/><rect x="200.0" y="562.5" width="198.0" height="185.5" rx="2" fill="url(#g)" opacity="0.55"/><rect x="400.0" y="562.5" width="198.0" height="185.5" rx="2" fill="url(#g)" opacity="0.51"/><rect x="600.0" y="562.5" width="198.0" height="185.5" rx="2" fill="url(#g)" opacity="0.58"/><rect x="800.0" y="562.5" width="198.0" height="185.5" rx="2" fill="url(#g)" opacity="0.55"/><rect x="1000.0" y="562.5" width="198.0" height="185.5" rx="2" fill="url(#g)" opacity="0.55"/><rect x="0.0" y="750.0" width="198.0" height="185.5" rx="2" fill="url(#g)" opacity="0.58"/><rect x="200.0" y="750.0" width="198.0" height="185.5" rx="2" fill="url(#g)" opacity="0.51"/><rect x="400.0" y="750.0" width="198.0" height="185.5" rx="2" fill="url(#g)" opacity="0.55"/><rect x="600.0" y="750.0" width="198.0" height="185.5" rx="2" fill="url(#g)" opacity="0.58"/><rect x="800.0" y="750.0" width="198.0" height="185.5" rx="2" fill="url(#g)" opacity="0.55"/><rect x="1000.0" y="750.0" width="198.0" height="185.5" rx="2" fill="url(#g)" opacity="0.55"/><rect x="0.0" y="937.5" width="198.0" height="185.5" rx="2" fill="url(#g)" opacity="0.51"/><rect x="200.0" y="937.5" width="198.0" height="185.5" rx="2" fill="url(#g)" opacity="0.55"/><rect x="400.0" y="937.5" width="198.0" height="185.5" rx="2" fill="url(#g)" opacity="0.55"/><rect x="600.0" y="937.5" width="198.0" height="185.5" rx="2" fill="url(#g)" opacity="0.58"/><rect x="800.0" y="937.5" width="198.0" height="185.5" rx="2" fill="url(#g)" opacity="0.55"/><rect x="1000.0" y="937.5" width="198.0" height="185.5" rx="2" fill="url(#g)" opacity="0.51"/><rect x="0.0" y="1125.0" width="198.0" height="185.5" rx="2" fill="url(#g)" opacity="0.58"/><rect x="200.0" y="1125.0" width="198.0" height="185.5" rx="2" fill="url(#g)" opacity="0.55"/><rect x="400.0" y="1125.0" width="198.0" height="185.5" rx="2" fill="url(#g)" opacity="0.55"/><rect x="600.0" y="1125.0" width="198.0" height="185.5" rx="2" fill="url(#g)" opacity="0.58"/><rect x="800.0" y="1125.0" width="198.0" height="185.5" rx="2" fill="url(#g)" opacity="0.51"/><rect x="1000.0" y="1125.0" width="198.0" height="185.5" rx="2" fill="url(#g)" opacity="0.55"/><rect x="0.0" y="1312.5" width="198.0" height="185.5" rx="2" fill="url(#g)" opacity="0.58"/><rect x="200.0" y="1312.5" width="198.0" height="185.5" rx="2" fill="url(#g)" opacity="0.55"/><rect x="400.0" y="1312.5" width="198.0" height="185.5" rx="2" fill="url(#g)" opacity="0.55"/><rect x="600.0" y="1312.5" width="198.0" height="185.5" rx="2" fill="url(#g)" opacity="0.51"/><rect x="800.0" y="1312.5" width="198.0" height="185.5" rx="2" fill="url(#g)" opacity="0.55"/><rect x="1000.0" y="1312.5" width="198.0" height="185.5" rx="2" fill="url(#g)" opacity="0.55"/>
  <rect width="1200" height="1500" fill="url(#sheen)"/>
  <g opacity="0.85" transform="translate(600, 930)">
    <circle r="34" fill="#ffffff" opacity="0.12"/>
    <path d="M0 -22 C 0 -22 -13 -6 -13 2 a 13 13 0 0 0 26 0 C 13 -6 0 -22 0 -22 Z" fill="#ffffff" opacity="0.9"/>
  </g>
  <text x="600" y="1478" text-anchor="middle" font-family="Inter, sans-serif" font-size="15" fill="#ffffff" opacity="0.7">Sample photo</text>
</svg>